<?xml version="1.0" encoding="UTF-8"?>
<svg width="752pt" height="752pt" version="1.1" viewBox="0 0 752 752" xmlns="http://www.w3.org/2000/svg">
 <path d="m522.81 151.05h-293.62c-43.098 0-78.141 35.043-78.141 78.141v293.62c0 43.098 35.047 78.141 78.141 78.141h293.62c43.098 0 78.141-35.047 78.141-78.141v-293.62c0-43.098-35.047-78.141-78.141-78.141zm-56.832 286.52c8.0508 8.0508 8.0508 20.363 0 28.414-3.7891 3.7891-8.9961 5.6836-14.207 5.6836-5.2109 0-10.418-1.8945-14.207-5.6836l-61.566-61.562-61.562 61.562c-3.7891 3.7891-8.9961 5.6836-14.207 5.6836-5.2109 0-10.418-1.8945-14.207-5.6836-8.0508-8.0508-8.0508-20.363 0-28.414l61.566-61.566-61.57-61.562c-8.0508-8.0508-8.0508-20.363 0-28.414 8.0508-8.0508 20.363-8.0508 28.414 0l61.566 61.566 61.566-61.566c8.0508-8.0508 20.363-8.0508 28.414 0 8.0508 8.0508 8.0508 20.363 0 28.414l-61.562 61.562z" fill="#8b0000"/>
</svg>