<svg xmlns="http://www.w3.org/2000/svg" xmlns:xlink="http://www.w3.org/1999/xlink" width="300" zoomAndPan="magnify" viewBox="0 0 224.87999 225" height="300" preserveAspectRatio="xMidYMid meet" version="1.0"><defs><clipPath id="beb49a5bd8"><path d="M 18.785156 18.84375 L 206.183594 18.84375 L 206.183594 206.242188 L 18.785156 206.242188 Z M 18.785156 18.84375 " clip-rule="nonzero"/></clipPath><clipPath id="4803422d50"><path d="M 0 0.0585938 L 224.761719 0.0585938 L 224.761719 224.9375 L 0 224.9375 Z M 0 0.0585938 " clip-rule="nonzero"/></clipPath></defs><g clip-path="url(#beb49a5bd8)"><path fill="#d3d3d3" d="M 112.484375 18.84375 C 60.734375 18.84375 18.785156 60.792969 18.785156 112.542969 C 18.785156 164.292969 60.734375 206.242188 112.484375 206.242188 C 164.234375 206.242188 206.183594 164.292969 206.183594 112.542969 C 206.183594 60.792969 164.234375 18.84375 112.484375 18.84375 " fill-opacity="1" fill-rule="nonzero"/></g><g clip-path="url(#4803422d50)"><path fill="#115ca2" d="M 112.40625 0.015625 C 174.511719 0.015625 224.859375 50.363281 224.859375 112.46875 C 224.859375 174.574219 174.511719 224.917969 112.40625 224.917969 C 50.300781 224.917969 -0.0429688 174.574219 -0.0429688 112.46875 C -0.0429688 50.363281 50.300781 0.015625 112.40625 0.015625 Z M 126.480469 101.835938 L 126.480469 168.742188 C 126.480469 187.355469 98.332031 187.355469 98.332031 168.742188 L 98.332031 101.835938 C 98.332031 83.222656 126.480469 83.222656 126.480469 101.835938 Z M 112.40625 42.21875 C 121.089844 42.21875 128.136719 49.253906 128.136719 57.949219 C 128.136719 66.632812 121.089844 73.679688 112.40625 73.679688 C 103.722656 73.679688 96.675781 66.632812 96.675781 57.949219 C 96.675781 49.253906 103.722656 42.21875 112.40625 42.21875 Z M 112.40625 42.21875 " fill-opacity="1" fill-rule="evenodd"/></g></svg>